<?xml version="1.0" encoding="UTF-8"?>
<svg version="1.1" xmlns="http://www.w3.org/2000/svg" width="288" height="288">
<path d="M0 0 C0.82564453 0.23605957 1.65128906 0.47211914 2.50195312 0.71533203 C39.01820818 11.58193057 70.84594128 36.69142384 89.21191406 70.21191406 C95.21658164 81.67980478 99.69137727 93.49616326 103 106 C103.3403125 107.24652344 103.680625 108.49304688 104.03125 109.77734375 C108.79585535 131.15189274 108.00057954 157.03027912 102 178 C101.76394043 178.82564453 101.52788086 179.65128906 101.28466797 180.50195312 C90.41806943 217.01820818 65.30857616 248.84594128 31.78808594 267.21191406 C20.32019522 273.21658164 8.50383674 277.69137727 -4 281 C-5.24652344 281.3403125 -6.49304688 281.680625 -7.77734375 282.03125 C-29.15189274 286.79585535 -55.03027912 286.00057954 -76 280 C-76.82564453 279.76394043 -77.65128906 279.52788086 -78.50195312 279.28466797 C-115.01820818 268.41806943 -146.84594128 243.30857616 -165.21191406 209.78808594 C-171.21658164 198.32019522 -175.69137727 186.50383674 -179 174 C-179.51046875 172.13021484 -179.51046875 172.13021484 -180.03125 170.22265625 C-184.79585535 148.84810726 -184.00057954 122.96972088 -178 102 C-177.76394043 101.17435547 -177.52788086 100.34871094 -177.28466797 99.49804688 C-166.41806943 62.98179182 -141.30857616 31.15405872 -107.78808594 12.78808594 C-96.32019522 6.78341836 -84.50383674 2.30862273 -72 -1 C-70.75347656 -1.3403125 -69.50695312 -1.680625 -68.22265625 -2.03125 C-46.84810726 -6.79585535 -20.96972088 -6.00057954 0 0 Z " fill="#18437C" transform="translate(182,4)"/>
<path d="M0 0 C0.95808563 -0.00145523 1.91617126 -0.00291046 2.90328979 -0.00440979 C4.92546637 -0.00275549 6.94765616 0.00875307 8.96972656 0.02954102 C12.02464984 0.05831087 15.07781388 0.05017546 18.1328125 0.03710938 C33.65603753 0.05328213 49.04063741 0.65588231 61.25 11.5703125 C69.6651834 20.46680713 72.2509682 29.28742718 71.9296875 41.49609375 C70.46605323 53.20516793 64.58193396 60.93286557 56.9296875 69.49609375 C57.7546875 69.66109375 58.5796875 69.82609375 59.4296875 69.99609375 C67.99389888 73.66647005 72.48245344 81.16651101 75.9296875 89.49609375 C78.92991108 98.49676448 78.11790674 111.48416151 74.31640625 120.07421875 C67.68057803 131.66355254 59.40402562 137.7431913 46.82421875 141.734375 C41.76375066 143.06607713 36.96947498 143.62065026 31.74072266 143.60961914 C30.53993073 143.60954361 29.33913879 143.60946808 28.10195923 143.60939026 C26.82050018 143.60422897 25.53904114 143.59906769 24.21875 143.59375 C22.88211114 143.5918827 21.54547158 143.59046027 20.20883179 143.58946228 C16.70719481 143.5856617 13.20559994 143.57585266 9.70397949 143.5647583 C6.12427337 143.55449107 2.54456038 143.54995332 -1.03515625 143.54492188 C-8.04689219 143.53422797 -15.05860032 143.51718139 -22.0703125 143.49609375 C-22.1872479 126.55404223 -22.2753504 109.61211711 -22.32937336 92.66975403 C-22.35512681 84.80264779 -22.39022216 76.93579268 -22.44750977 69.06884766 C-22.49743288 62.20993629 -22.52962431 55.35120685 -22.54075497 48.49211884 C-22.54725883 44.86205009 -22.56248368 41.23250165 -22.59896278 37.6026001 C-22.63940992 33.54473037 -22.64025626 29.4877583 -22.63793945 25.4296875 C-22.66490402 23.63541069 -22.66490402 23.63541069 -22.69241333 21.80488586 C-22.64923199 14.81093292 -21.85728727 9.80777111 -17.0703125 4.49609375 C-11.83452947 0.07731944 -6.65015647 -0.08233077 0 0 Z " fill="#FCFDFD" transform="translate(99.0703125,71.50390625)"/>
<path d="M0 0 C0.93779297 -0.01224609 1.87558594 -0.02449219 2.84179688 -0.03710938 C10.61161782 -0.05353606 16.53493841 1.10494912 22.6875 6.1875 C26.77008061 11.40413078 27.31114913 16.86883599 27.07421875 23.34765625 C26.34377576 28.71161638 24.18005843 31.80688345 20.1875 35.5 C15.44145807 38.7035783 12.56404426 39.43221648 6.734375 39.3828125 C6.07415344 39.3799826 5.41393188 39.37715271 4.73370361 39.37423706 C2.63478103 39.36308415 0.53629258 39.33798946 -1.5625 39.3125 C-2.98957715 39.30246384 -4.41666102 39.2933391 -5.84375 39.28515625 C-9.33347328 39.26316111 -12.82294423 39.22866536 -16.3125 39.1875 C-16.38675143 34.41865433 -16.44114936 29.6501464 -16.47729492 24.88085938 C-16.49236565 23.25905494 -16.51282593 21.63729116 -16.53881836 20.015625 C-16.57527829 17.68218954 -16.59224314 15.34929369 -16.60546875 13.015625 C-16.62095261 12.29256165 -16.63643646 11.56949829 -16.65238953 10.82452393 C-16.65342922 7.70257513 -16.4964468 5.52293041 -14.98168945 2.76074219 C-10.97120583 -1.01921341 -5.14865245 0.00349535 0 0 Z " fill="#18417B" transform="translate(121.3125,151.8125)"/>
<path d="M0 0 C1.41732422 -0.00290039 1.41732422 -0.00290039 2.86328125 -0.00585938 C4.32701172 0.02991211 4.32701172 0.02991211 5.8203125 0.06640625 C6.78839844 0.05544922 7.75648437 0.04449219 8.75390625 0.03320312 C14.99344237 0.09687186 18.90280667 0.88532861 23.9453125 4.62890625 C27.53812676 8.83402971 28.60399788 13.9606705 28.33203125 19.390625 C27.42367231 24.64809643 25.20197751 28.46200303 21.3203125 32.06640625 C17.50012919 34.57968474 15.42561992 34.74797311 10.84375 34.7265625 C9.02617188 34.72172852 9.02617188 34.72172852 7.171875 34.71679688 C5.90085937 34.70841797 4.62984375 34.70003906 3.3203125 34.69140625 C2.0415625 34.68689453 0.7628125 34.68238281 -0.5546875 34.67773438 C-3.72140042 34.66591828 -6.88802106 34.6494444 -10.0546875 34.62890625 C-10.17874757 30.59065559 -10.26923795 26.55314987 -10.3293457 22.51342773 C-10.35441367 21.14083523 -10.38847832 19.76837523 -10.43188477 18.39624023 C-10.49286281 16.41839929 -10.51829759 14.43956441 -10.54296875 12.4609375 C-10.56915283 11.27218018 -10.59533691 10.08342285 -10.62231445 8.85864258 C-9.58225246 2.94080165 -5.92432399 -0.00504818 0 0 Z " fill="#17407A" transform="translate(115.0546875,95.37109375)"/>
<path d="M0 0 C4.90195143 2.40641252 8.62141437 5.69565816 10.7578125 10.81640625 C12.3296411 15.8999785 12.22319871 20.13614606 10 25 C7.18750794 29.29897435 4.19064543 32.91358584 -1 34 C-6.72799189 34.57492855 -11.12436999 34.35876734 -16 31 C-20.65129677 26.47972567 -22.68907659 23.23360349 -23.3125 16.75 C-22.85755016 11.29060188 -21.30912565 7.24936004 -17.33984375 3.3828125 C-11.95427113 -0.53195692 -6.48887997 -1.07319914 0 0 Z " fill="#159FDB" transform="translate(213,183)"/>
</svg>
